Coordinates
version=1
nRows=19
nColumns=24
inDegrees=yes

Units are S.I. units (second, meters, Newtons, ...)
Angles are in degrees.

endheader
time	pelvis_tilt	pelvis_list	pelvis_rotation	pelvis_tx	pelvis_ty	pelvis_tz	hip_flexion_r	hip_adduction_r	hip_rotation_r	knee_angle_r	ankle_angle_r	subtalar_angle_r	mtp_angle_r	hip_flexion_l	hip_adduction_l	hip_rotation_l	knee_angle_l	ankle_angle_l	subtalar_angle_l	mtp_angle_l	lumbar_extension	lumbar_bending	lumbar_rotation
      2.89500000	     -8.48625975	      7.01043638	    357.09328578	      0.51315069	      1.37104151	     -1.01561800	      6.81484899	     -4.65369333	      3.84490172	    -38.67051780	      0.27667150	      4.60855258	     26.18338082	     24.86879596	     10.56458477	      3.60273445	     -8.83539084	    -12.97552168	    -12.80480516	     30.48339252	     -7.24166152	     -2.52527673	     17.51131476
      2.90000000	     -8.34367753	      7.23234357	    357.02286124	      0.51824242	      1.37133135	     -1.01586261	      7.48979781	     -4.98988043	      4.00936581	    -40.35480603	     -0.71514648	      5.33735438	     26.78163691	     24.70829891	     10.83348428	      3.58055726	     -9.36741248	    -12.60970900	    -12.85016226	     30.01157261	     -7.37492154	     -2.82736561	     17.58998520
      2.90500000	     -8.20331967	      7.44091516	    356.94907904	      0.52327284	      1.37161389	     -1.01609457	      8.18561576	     -5.29553537	      4.21636817	    -42.01369915	     -1.69503053	      5.98078182	     27.35003984	     24.54030165	     11.08586278	      3.49072177	     -9.87826537	    -12.18701355	    -12.79768916	     29.42084676	     -7.51820010	     -3.09840142	     17.61302691
      2.91000000	     -8.05104520	      7.63420576	    356.88464780	      0.52827198	      1.37189732	     -1.01632161	      8.87195282	     -5.57514438	      4.43365127	    -43.63171284	     -2.59231426	      6.60900077	     27.73278420	     24.33684162	     11.32463974	      3.35887983	    -10.34404633	    -11.73739337	    -12.67429489	     28.90002970	     -7.67290532	     -3.35519370	     17.61887272
      2.91500000	     -7.93120814	      7.80556071	    356.83264921	      0.53324382	      1.37214638	     -1.01657530	      9.59580236	     -5.81927320	      4.66376585	    -45.20750888	     -3.38449705	      7.22924406	     27.95542847	     24.14713717	     11.54199053	      3.20274102	    -10.76892737	    -11.26720685	    -12.48861989	     28.40029404	     -7.78754022	     -3.57951853	     17.62319213
      2.92000000	     -7.78037989	      7.96535736	    356.78564175	      0.53818756	      1.37242766	     -1.01683334	     10.27916468	     -6.04330542	      4.89907173	    -46.72389697	     -4.03000036	      7.83984705	     28.01812659	     23.89393989	     11.75062225	      3.01082201	    -11.13352600	    -10.80203466	    -12.26556066	     27.95942838	     -7.93822104	     -3.78923599	     17.61372862
      2.92500000	     -7.65868378	      8.07680467	    356.75334663	      0.54308262	      1.37269420	     -1.01712313	     10.98726907	     -6.20008700	      5.13804773	    -48.18099832	     -4.55708563	      8.41117423	     27.88938900	     23.65446521	     11.91221785	      2.80252677	    -11.47315328	    -10.29974423	    -11.95121164	     27.45035941	     -8.05976176	     -3.93690865	     17.60511474
      2.93000000	     -7.53839170	      8.20558901	    356.73279324	      0.54800602	      1.37295543	     -1.01739684	     11.68524287	     -6.37026845	      5.36741017	    -49.57729631	     -4.87628798	      8.95684739	     27.73931584	     23.37592164	     12.09316441	      2.59607731	    -11.72768040	     -9.86095823	    -11.70386139	     27.16312927	     -8.16574137	     -4.11193162	     17.56572507
      2.93500000	     -7.43326211	      8.27151181	    356.71987660	      0.55285180	      1.37322893	     -1.01770892	     12.39052571	     -6.45566958	      5.59753711	    -50.90682380	     -5.07689635	      9.40658486	     27.37856121	     23.10193950	     12.21265384	      2.37920293	    -11.97130919	     -9.38008132	    -11.38187466	     26.74702407	     -8.27423476	     -4.19507412	     17.50994005
      2.94000000	     -7.32195180	      8.34071447	    356.73062042	      0.55773754	      1.37352871	     -1.01804841	     13.06637188	     -6.55077203	      5.79300533	    -52.15175077	     -5.12264846	      9.83239293	     27.16804546	     22.78018202	     12.34564297	      2.19825148	    -12.13691358	     -8.97863343	    -11.12293982	     26.54998027	     -8.36879443	     -4.29306536	     17.46363959
      2.94500000	     -7.25262193	      8.36850869	    356.75367776	      0.56258586	      1.37381802	     -1.01840646	     13.77786854	     -6.58559542	      5.98092373	    -53.32994293	     -5.04934450	     10.13362687	     26.86118546	     22.49044709	     12.43704196	      2.03041270	    -12.28705855	     -8.56263735	    -10.84197557	     26.29570243	     -8.42653763	     -4.33013411	     17.37949090
      2.95000000	     -7.17782288	      8.36104387	    356.79190244	      0.56742372	      1.37414625	     -1.01880433	     14.46276772	     -6.58134081	      6.14044568	    -54.42295460	     -4.86228377	     10.32601857	     26.56663718	     22.17210141	     12.50247795	      1.90863098	    -12.40495900	     -8.16880536	    -10.60708262	     26.05250842	     -8.49255241	     -4.31840542	     17.28382997
      2.95500000	     -7.13435682	      8.32678782	    356.85335678	      0.57225293	      1.37447890	     -1.01923781	     15.16658999	     -6.54658951	      6.26697158	    -55.44069016	     -4.57324668	     10.41060184	     26.30042899	     21.87512448	     12.54777823	      1.82712845	    -12.50800903	     -7.81196662	    -10.39726792	     25.81337653	     -8.52348058	     -4.26921169	     17.17090367
      2.96000000	     -7.02706659	      8.29013879	    356.90165950	      0.57712573	      1.37492496	     -1.01964485	     15.77895251	     -6.50908938	      6.38797260	    -56.35333137	     -4.25173164	     10.34698957	     26.24462269	     21.46507975	     12.59328214	      1.78239917	    -12.52755975	     -7.55879748	    -10.33201113	     25.72972365	     -8.61837811	     -4.21454333	     17.01897981
      2.96500000	     -7.03242691	      8.18844272	    357.02110619	      0.58194818	      1.37527382	     -1.02017852	     16.50015666	     -6.41414842	      6.42312085	    -57.21337486	     -3.83037184	     10.26237549	     25.94144830	     21.20920962	     12.59102788	      1.81656351	    -12.64321278	     -7.12896261	    -10.07669320	     25.43421108	     -8.59785863	     -4.07725434	     16.86598023
      2.97000000	     -6.97228134	      8.09559335	    357.12687108	      0.58678560	      1.37572625	     -1.02068520	     17.13645030	     -6.33254861	      6.44743885	    -57.98116142	     -3.36727715	     10.00528185	     25.81468573	     20.85464569	     12.60041524	      1.87610889	    -12.69890702	     -6.86615724	    -10.00154760	     25.23047563	     -8.65098588	     -3.94923581	     16.69083337
      2.97500000	     -6.93314661	      7.98113925	    357.26630618	      0.59172191	      1.37620349	     -1.02123016	     17.76314885	     -6.24116808	      6.41979007	    -58.65255908	     -2.86390952	      9.65783978	     25.72441184	     20.49886854	     12.59961990	      2.03104756	    -12.73422491	     -6.57083041	     -9.92838295	     25.06969411	     -8.65121972	     -3.80238318	     16.50798571
      2.98000000	     -6.89173577	      7.82921468	    357.41957493	      0.59662684	      1.37671342	     -1.02180938	     18.37394338	     -6.11810561	      6.35715459	    -59.24253431	     -2.33440221	      9.24548969	     25.61505649	     20.15213192	     12.56638935	      2.21860629	    -12.80405829	     -6.26094947	     -9.85897451	     24.85532590	     -8.66638634	     -3.60195356	     16.30366107
      2.98500000	     -6.87280027	      7.67149561	    357.57853503	      0.60155166	      1.37722296	     -1.02241465	     19.00167481	     -5.99868306	      6.27709334	    -59.76551900	     -1.72628786	      8.88573042	     25.42156480	     19.83752999	     12.52947383	      2.41812765	    -12.90706731	     -5.88129383	     -9.71576973	     24.34480965	     -8.65453000	     -3.38211450	     16.07553894
